<svg xmlns="http://www.w3.org/2000/svg" width="26" height="16" viewBox="0 0 26 16">
  <g fill="#EF5757">
    <path d="M11.4291667,8.0969697 C12.2416667,8.75151515 13.4875,8.75151515 14.3,8.0969697 L23.96875,0.145454545 C23.6979167,0.0484848485 23.4,0 23.075,0 L2.65416667,0 C2.32916667,0 2.03125,0.0484848485 1.76041667,0.145454545 L11.4291667,8.0969697 Z"/>
    <path d="M15.7625,9.52727273 C14.95,10.2060606 13.9208333,10.5212121 12.8645833,10.5212121 C11.8354167,10.5212121 10.7791667,10.1818182 9.96666667,9.52727273 L0.189583333,1.45454545 C0.0541666667,1.74545455 -7.38964445e-14,2.03636364 -7.38964445e-14,2.37575758 L-7.38964445e-14,13.1878788 C-7.38964445e-14,14.4969697 1.19166667,15.5636364 2.65416667,15.5636364 L23.0479167,15.5636364 C24.5104167,15.5636364 25.7020833,14.4969697 25.7020833,13.1878788 L25.7020833,2.37575758 C25.7020833,2.06060606 25.6208333,1.74545455 25.5125,1.45454545 L15.7625,9.52727273 Z"/>
  </g>
</svg>
