<svg xmlns="http://www.w3.org/2000/svg" width="21" height="23" viewBox="0 0 21 23">
  <path fill="#EF5757" d="M16.625,0 L4.375,0 C1.959125,0 0,1.99022222 0,4.44444444 L0,16.8888889 C0,19.3431111 1.959125,21.3333333 4.375,21.3333333 L16.625,21.3333333 C19.04175,21.3333333 21,19.3431111 21,16.8888889 L21,4.44444444 C21,1.99022222 19.04175,0 16.625,0 Z M7,16.8888889 L4.375,16.8888889 L4.375,7.11111111 L7,7.11111111 L7,16.8888889 Z M5.6875,5.984 C4.84225,5.984 4.15625,5.28177778 4.15625,4.416 C4.15625,3.55022222 4.84225,2.848 5.6875,2.848 C6.53275,2.848 7.21875,3.55022222 7.21875,4.416 C7.21875,5.28177778 6.533625,5.984 5.6875,5.984 Z M17.5,16.8888889 L14.875,16.8888889 L14.875,11.9075556 C14.875,8.91377778 11.375,9.14044444 11.375,11.9075556 L11.375,16.8888889 L8.75,16.8888889 L8.75,7.11111111 L11.375,7.11111111 L11.375,8.68 C12.5965,6.38133333 17.5,6.21155556 17.5,10.8808889 L17.5,16.8888889 Z" transform="translate(0 .778)"/>
</svg>
