<svg xmlns="http://www.w3.org/2000/svg" width="21" height="22" viewBox="0 0 21 22">
  <path fill="#EF5757" d="M3.63988296,0.103136711 C3.08835156,0.115339378 2.84976608,0.289032533 2.51988296,0.6720256 L0.55988296,2.94758116 C0.15020768,3.42321209 -0.00011704,4.16488107 -0.00011704,4.93869227 C-0.00011704,7.52228693 1.91315096,11.7171769 5.59988296,15.4631396 C9.28731076,19.2083911 13.4166301,21.1520284 15.959883,21.1520284 C16.7215919,21.1520284 17.4516667,20.9993387 17.919883,20.5831396 L20.159883,18.5920284 C20.5368778,18.256896 20.707829,18.0145209 20.719883,17.4542507 C20.7286946,17.0416356 20.4879494,16.6497564 20.159883,16.3164729 L17.079883,13.187584 C16.7342106,12.8364373 16.4371612,12.6186667 15.959883,12.6186951 C15.4634679,12.6186667 15.1457622,12.8768569 14.839883,13.187584 L13.719883,14.3253618 C13.2068194,14.8273778 12.8236399,14.8656356 12.319883,14.6098062 L6.43988296,8.63647004 C6.18805376,8.12472036 6.22571572,7.73545813 6.71988296,7.21424782 L7.83988296,6.07647004 C8.1457586,5.76574009 8.39988296,5.44298098 8.39988296,4.93869227 C8.39988296,4.4538112 8.18556032,4.15207822 7.83988296,3.80091449 L4.75988296,0.6720256 C4.43181508,0.338750578 4.04603052,0.0941596444 3.63988296,0.103136711 Z" transform="translate(0 -.111)"/>
</svg>
