<svg xmlns="http://www.w3.org/2000/svg" width="21" height="22" viewBox="0 0 21 22">
  <path fill="#EF5757" d="M10.941 5.984L14.9583 5.984C15.3103938 7.47409653 15.5012951 9.00097181 15.5274 10.5358L10.941 10.5358 10.941 5.984zM5.46 11.462L10.0548 11.462 10.0548 16.016 6.1068 16.016C6.08653867 16.0205157 6.06540408 16.0155904 6.04888075 16.0025022 6.03235743 15.9894141 6.02207434 15.9694534 6.0207 15.9478 5.84973459 15.2307091 5.72069482 14.5033576 5.6343 13.7698 5.5776 13.2836 5.544 12.7974 5.5062 12.309 5.4852 12.045 5.481 11.7788 5.4684 11.5148 5.46 11.4994 5.46 11.484 5.46 11.462zM5.481 10.5358C5.481 10.3818 5.481 10.2322 5.481 10.0826 5.5251 9.4886 5.565 8.8924 5.6259 8.3006 5.70937096 7.53765312 5.84126295 6.78137881 6.0207 6.0368 6.02111604 6.02035959 6.02826673 6.00490223 6.04032675 5.99437363 6.05238678 5.98384504 6.06818912 5.97926404 6.0837 5.9818L10.0254 5.9818 10.0548 5.9818 10.0548 10.5358 5.481 10.5358zM15.5148 11.4642C15.5148 11.616 15.5148 11.7634 15.5148 11.9042 15.4707 12.5004 15.4287 13.0988 15.3699 13.695 15.2857816 14.4572786 15.1531869 15.2128248 14.973 15.9566 14.972584 15.9730404 14.9654333 15.9884978 14.9533732 15.9990264 14.9413132 16.009555 14.9255109 16.014136 14.91 16.0116L10.9683 16.0116 10.9389 16.0116 10.9389 11.4642 15.5148 11.4642zM5.1177 5.9862C4.79218591 7.4794357 4.61692893 9.00429536 4.5948 10.5358L0 10.5358C0 10.4082 0 10.285.0189 10.1618.122916311 8.72431793.496869416 7.32250354 1.1193 6.0368 1.13334594 5.99959253 1.16958355 5.97699538 1.2075 5.9818L5.1177 5.9818 5.1177 5.9862zM0 11.462L4.5948 11.462C4.61740214 12.9950497 4.79336393 14.5213926 5.1198 16.016L1.2201 16.016C1.17322535 16.0209878 1.12910513 15.9919863 1.113 15.9456.697500636 15.0762287.393855221 14.1529852.21 13.2.0987412153 12.6544054.028525649 12.1005049 0 11.5434 0 11.517 0 11.4906 0 11.462zM21 10.538L16.401 10.538C16.3790637 9.00490301 16.2030935 7.47848727 15.876 5.984L19.7757 5.984C19.8231394 5.97930212 19.867452 6.00934033 19.8828 6.0566 20.5332892 7.40575729 20.9100977 8.88139483 20.9895 10.3906 21 10.4346 21 10.483 21 10.538zM21 11.462C20.9832 11.6974 20.9706 11.9262 20.9475 12.1528 20.9009945 12.6224143 20.825233 13.0883412 20.7207 13.5476 20.5322517 14.3859835 20.2503142 15.198232 19.8807 15.9676 19.8701454 16.0013641 19.8389097 16.0231795 19.8051 16.0204L15.876 16.0204C16.2034632 14.5244908 16.3794362 12.9965755 16.401 11.462L21 11.462zM10.0548 21.9626C9.56286305 21.8525293 9.10511222 21.6150242 8.7234 21.2718 8.30571221 20.904532 7.94137901 20.4754173 7.6419 19.998 7.07400477 19.089141 6.63077534 18.1012244 6.3252 17.0632L6.3 16.9554 10.0548 16.9554 10.0548 21.9626zM10.9368 21.9626L10.9368 16.9554 14.7 16.9554 14.6538 17.1072C14.4300309 17.8433362 14.1418054 18.556234 13.7928 19.2368 13.4302013 19.9752333 12.9436374 20.6392285 12.3564 21.197 11.9561045 21.5791536 11.4662717 21.8433238 10.9368 21.9626L10.9368 21.9626zM10.0548.0374L10.0548 5.0468 6.3 5.0468C6.3 5.0248 6.3 5.0072 6.3147 4.9896 6.58466448 4.07110639 6.95756406 3.18935951 7.4256 2.3628 7.77745004 1.72277201 8.23541742 1.15359752 8.778.682 9.1475135.362017857 9.58566479.140814597 10.0548.0374zM14.7 5.0468L10.941 5.0468 10.941.0396C11.2001229.091951035 11.4501011.185427307 11.6823.3168 12.1756761.603495362 12.6096957.990129016 12.9591 1.4542 13.5131638 2.1761499 13.9586102 2.98260035 14.28 3.8456 14.427 4.2196 14.5488 4.6046 14.6811 4.9852 14.7 5.0006 14.7 5.0182 14.7 5.0468zM7.7595.3872C7.6692.4884 7.5789.5874 7.4907.6908 7.0518752 1.21273668 6.67465839 1.7881476 6.3672 2.4046 5.95564701 3.22067825 5.62492295 4.07875137 5.3802 4.9654 5.37658533 4.99238178 5.3627381 5.01669676 5.34179048 5.03284506 5.32084286 5.04899336 5.29456472 5.0556106 5.2689 5.0512L1.659 5.0512C3.07208777 2.76132922 5.23965119 1.09582902 7.749.3718L7.7595.3872zM1.6569 16.94L5.2731 16.94C5.29796981 16.9355976 5.32347653 16.9420373 5.34370189 16.9578248 5.36392725 16.9736123 5.37711312 16.9973752 5.3802 17.0236 5.62715324 17.9191693 5.96214718 18.7854751 6.3798 19.6086 6.73468109 20.3236187 7.18668704 20.9809288 7.7217 21.56L7.7532 21.5974C7.7544125 21.606891 7.7544125 21.616509 7.7532 21.626 5.24088483 20.9010111 3.07096897 19.2330772 1.6569 16.94zM19.3305 5.06L15.7269 5.06C15.7012353 5.0644106 15.6749571 5.05779336 15.6540095 5.04164506 15.6330619 5.02549676 15.6192147 5.00118178 15.6156 4.9742 15.3710864 4.08747561 15.0403539 3.22938046 14.6286 2.4134 14.2706324 1.68984423 13.8135979 1.02501169 13.272.44 13.2538145.424747477 13.2394074.405126394 13.23.3828 14.0593892.608415666 14.857637.944841951 15.6051 1.3838 16.3561235 1.82322154 17.0529165 2.35740262 17.6799 2.9744 18.3088252 3.59687571 18.8630999 4.29722429 19.3305 5.06L19.3305 5.06zM13.23 21.6128C13.3203 21.5116 13.4106 21.4126 13.4988 21.3114 13.9327618 20.7950934 14.3064001 20.2264111 14.6118 19.6174 15.0278938 18.7960787 15.3621564 17.9320558 15.6093 17.039 15.6097424 17.0075872 15.6237932 16.9780888 15.6474864 16.9588307 15.6711797 16.9395726 15.7019454 16.9326438 15.7311 16.94L19.32 16.94C18.6245279 18.0820882 17.7339277 19.0799835 16.6929 19.8836 15.6542069 20.6856976 14.4788548 21.2726099 13.23 21.6128L13.23 21.6128z"/>
</svg>
